# Blender v2.71 (sub 3) OBJ File: ''
# www.blender.org
mtllib cube.mtl
o Cube_Cube.001
v -1.000000 1.000000 1.000000
v -1.000000 1.000000 -1.000000
v -1.000000 -1.000000 -1.000000
v -1.000000 -1.000000 1.000000
v 1.000000 1.000000 -1.000000
v 1.000000 -1.000000 -1.000000
v 1.000000 1.000000 1.000000
v 1.000000 -1.000000 1.000000
vt 1.000000 0.000000
vt 1.000000 1.000000
vt 0.000000 1.000000
vt 0.000000 0.000000
vn -1.000000 0.000000 0.000000
vn 0.000000 0.000000 -1.000000
vn 1.000000 0.000000 0.000000
vn 0.000000 -0.000000 1.000000
vn 0.000000 -1.000000 -0.000000
vn 0.000000 1.000000 0.000000
usemtl Material.001
s off
f 2/1/1 3/2/1 4/3/1
f 5/1/2 6/2/2 3/3/2
f 7/1/3 8/2/3 6/3/3
f 1/1/4 4/2/4 8/3/4
f 3/1/5 6/2/5 8/3/5
f 1/3/6 7/4/6 5/1/6
f 1/4/1 2/1/1 4/3/1
f 2/4/2 5/1/2 3/3/2
f 5/4/3 7/1/3 6/3/3
f 7/4/4 1/1/4 8/3/4
f 4/4/5 3/1/5 8/3/5
f 2/2/6 1/3/6 5/1/6
